<svg id="visual" viewBox="0 0 900 600" width="900" height="600" xmlns="http://www.w3.org/2000/svg" xmlns:xlink="http://www.w3.org/1999/xlink" version="1.1"><rect x="0" y="0" width="900" height="600" fill="#f9fafb"></rect><path d="M0 387L21.5 392.7C43 398.3 86 409.7 128.8 414.7C171.7 419.7 214.3 418.3 257.2 410.2C300 402 343 387 385.8 380.7C428.7 374.3 471.3 376.7 514.2 379C557 381.3 600 383.7 642.8 384.3C685.7 385 728.3 384 771.2 387.2C814 390.3 857 397.7 878.5 401.3L900 405L900 601L878.5 601C857 601 814 601 771.2 601C728.3 601 685.7 601 642.8 601C600 601 557 601 514.2 601C471.3 601 428.7 601 385.8 601C343 601 300 601 257.2 601C214.3 601 171.7 601 128.8 601C86 601 43 601 21.5 601L0 601Z" fill="#2563eb"></path><path d="M0 450L21.5 443.5C43 437 86 424 128.8 426.2C171.7 428.3 214.3 445.7 257.2 450.5C300 455.3 343 447.7 385.8 447.2C428.7 446.7 471.3 453.3 514.2 449.8C557 446.3 600 432.7 642.8 428C685.7 423.3 728.3 427.7 771.2 429.5C814 431.3 857 430.7 878.5 430.3L900 430L900 601L878.5 601C857 601 814 601 771.2 601C728.3 601 685.7 601 642.8 601C600 601 557 601 514.2 601C471.3 601 428.7 601 385.8 601C343 601 300 601 257.2 601C214.3 601 171.7 601 128.8 601C86 601 43 601 21.5 601L0 601Z" fill="#356de9"></path><path d="M0 500L21.5 501.8C43 503.7 86 507.3 128.8 496.8C171.7 486.3 214.3 461.7 257.2 457C300 452.3 343 467.7 385.8 468.7C428.7 469.7 471.3 456.3 514.2 457.3C557 458.3 600 473.7 642.8 481.2C685.7 488.7 728.3 488.3 771.2 482.2C814 476 857 464 878.5 458L900 452L900 601L878.5 601C857 601 814 601 771.2 601C728.3 601 685.7 601 642.8 601C600 601 557 601 514.2 601C471.3 601 428.7 601 385.8 601C343 601 300 601 257.2 601C214.3 601 171.7 601 128.8 601C86 601 43 601 21.5 601L0 601Z" fill="#4477e7"></path><path d="M0 509L21.5 506.8C43 504.7 86 500.3 128.8 500.3C171.7 500.3 214.3 504.7 257.2 511.2C300 517.7 343 526.3 385.8 531.8C428.7 537.3 471.3 539.7 514.2 537.3C557 535 600 528 642.8 519.3C685.7 510.7 728.3 500.3 771.2 503.8C814 507.3 857 524.7 878.5 533.3L900 542L900 601L878.5 601C857 601 814 601 771.2 601C728.3 601 685.7 601 642.8 601C600 601 557 601 514.2 601C471.3 601 428.7 601 385.8 601C343 601 300 601 257.2 601C214.3 601 171.7 601 128.8 601C86 601 43 601 21.5 601L0 601Z" fill="#5280e4"></path><path d="M0 553L21.5 548.2C43 543.3 86 533.7 128.8 534C171.7 534.3 214.3 544.7 257.2 547.8C300 551 343 547 385.8 542.3C428.7 537.7 471.3 532.3 514.2 536C557 539.7 600 552.3 642.8 559.3C685.7 566.3 728.3 567.7 771.2 562.7C814 557.7 857 546.3 878.5 540.7L900 535L900 601L878.5 601C857 601 814 601 771.2 601C728.3 601 685.7 601 642.8 601C600 601 557 601 514.2 601C471.3 601 428.7 601 385.8 601C343 601 300 601 257.2 601C214.3 601 171.7 601 128.8 601C86 601 43 601 21.5 601L0 601Z" fill="#6089e0"></path></svg>